<?xml version="1.0" encoding="UTF-8" standalone="no"?>
<!-- Created with Inkscape (http://www.inkscape.org/) -->

<svg
   width="210mm"
   height="297mm"
   viewBox="0 0 210 297"
   version="1.1"
   id="svg5"
   inkscape:version="1.1.1 (3bf5ae0d25, 2021-09-20)"
   sodipodi:docname="Trinity-V2.svg"
   inkscape:export-filename="C:\Users\Admin\Desktop\Trinity-V2.png"
   inkscape:export-xdpi="504.16898"
   inkscape:export-ydpi="504.16898"
   xmlns:inkscape="http://www.inkscape.org/namespaces/inkscape"
   xmlns:sodipodi="http://sodipodi.sourceforge.net/DTD/sodipodi-0.dtd"
   xmlns:xlink="http://www.w3.org/1999/xlink"
   xmlns="http://www.w3.org/2000/svg"
   xmlns:svg="http://www.w3.org/2000/svg">
  <sodipodi:namedview
     id="namedview7"
     pagecolor="#ffffff"
     bordercolor="#666666"
     borderopacity="1.0"
     inkscape:pageshadow="2"
     inkscape:pageopacity="0.0"
     inkscape:pagecheckerboard="0"
     inkscape:document-units="mm"
     showgrid="false"
     inkscape:zoom="1.2666455"
     inkscape:cx="526.98248"
     inkscape:cy="405.79625"
     inkscape:window-width="1920"
     inkscape:window-height="1009"
     inkscape:window-x="1912"
     inkscape:window-y="-8"
     inkscape:window-maximized="1"
     inkscape:current-layer="layer1"
     showguides="true"
     inkscape:guide-bbox="true"
     inkscape:snap-object-midpoints="true"
     inkscape:snap-others="true"
     inkscape:snap-global="true"
     inkscape:snap-bbox="true"
     inkscape:object-paths="true"
     inkscape:snap-intersection-paths="true"
     inkscape:snap-smooth-nodes="false"
     inkscape:snap-midpoints="true"
     inkscape:object-nodes="false" />
  <defs
     id="defs2">
    <linearGradient
       inkscape:collect="always"
       id="linearGradient38419">
      <stop
         style="stop-color:#ff5e00;stop-opacity:1;"
         offset="0"
         id="stop38415" />
      <stop
         style="stop-color:#ff00ba;stop-opacity:1"
         offset="1"
         id="stop38417" />
    </linearGradient>
    <linearGradient
       inkscape:collect="always"
       xlink:href="#linearGradient38419"
       id="linearGradient38421"
       x1="130.82043"
       y1="73.38192"
       x2="160.97919"
       y2="114.88676"
       gradientUnits="userSpaceOnUse"
       gradientTransform="translate(-34.466036,-9.6087131)" />
    <linearGradient
       inkscape:collect="always"
       xlink:href="#linearGradient38419"
       id="linearGradient39327"
       x1="155.29535"
       y1="81.681854"
       x2="171.05127"
       y2="81.681854"
       gradientUnits="userSpaceOnUse" />
    <linearGradient
       inkscape:collect="always"
       xlink:href="#linearGradient38419"
       id="linearGradient39335"
       x1="147.03633"
       y1="83.256325"
       x2="152.75427"
       y2="83.256325"
       gradientUnits="userSpaceOnUse" />
    <linearGradient
       inkscape:collect="always"
       xlink:href="#linearGradient38419"
       id="linearGradient39337"
       x1="144.73901"
       y1="85.97039"
       x2="154.01765"
       y2="85.97039"
       gradientUnits="userSpaceOnUse" />
    <linearGradient
       inkscape:collect="always"
       xlink:href="#linearGradient38419"
       id="linearGradient39339"
       x1="148.75923"
       y1="84.043602"
       x2="154.47717"
       y2="84.043602"
       gradientUnits="userSpaceOnUse" />
  </defs>
  <g
     inkscape:label="Layer 1"
     inkscape:groupmode="layer"
     id="layer1">
    <rect
       style="fill:#050f19;fill-opacity:1;stroke:none;stroke-width:0.252061;stroke-miterlimit:4;stroke-dasharray:none;stroke-opacity:1"
       id="rect39668"
       width="96.729469"
       height="71.746666"
       x="53.675076"
       y="45.41629"
       ry="7.8333445" />
    <path
       id="path18350-55-3-5"
       style="fill:none;fill-opacity:1;stroke:url(#linearGradient38421);stroke-width:0.656647"
       d="m 109.37726,57.431639 a 0.32113144,0.32113144 0 0 1 -0.32113,0.321131 0.32113144,0.32113144 0 0 1 -0.32113,-0.321131 0.32113144,0.32113144 0 0 1 0.32113,-0.321132 0.32113144,0.32113144 0 0 1 0.32113,0.321132 z M 96.675534,89.583784 a 0.32113144,0.32113144 0 0 1 -0.32114,0.321132 0.32113144,0.32113144 0 0 1 -0.32113,-0.321132 0.32113144,0.32113144 0 0 1 0.32113,-0.321131 0.32113144,0.32113144 0 0 1 0.32114,0.321131 z m 0,4.236803 a 0.32113144,0.32113144 0 0 1 -0.32114,0.32113 0.32113144,0.32113144 0 0 1 -0.32113,-0.32113 0.32113144,0.32113144 0 0 1 0.32113,-0.32113 0.32113144,0.32113144 0 0 1 0.32114,0.32113 z m 7.408336,-7.984796 a 0.32113144,0.32113144 0 0 1 -0.32113,0.321131 0.32113144,0.32113144 0 0 1 -0.32114,-0.321131 0.32113144,0.32113144 0 0 1 0.32114,-0.321132 0.32113144,0.32113144 0 0 1 0.32113,0.321132 z m 0,-4.369957 a 0.32113144,0.32113144 0 0 1 -0.32113,0.321131 0.32113144,0.32113144 0 0 1 -0.32114,-0.321131 0.32113144,0.32113144 0 0 1 0.32114,-0.321132 0.32113144,0.32113144 0 0 1 0.32113,0.321132 z M 96.675534,77.55702 a 0.32113144,0.32113144 0 0 1 -0.32114,0.321132 0.32113144,0.32113144 0 0 1 -0.32113,-0.321132 0.32113144,0.32113144 0 0 1 0.32113,-0.321131 0.32113144,0.32113144 0 0 1 0.32114,0.321131 z M 122.34011,63.508787 a 0.32113144,0.32113144 0 0 1 -0.32113,0.321132 0.32113144,0.32113144 0 0 1 -0.32114,-0.321132 0.32113144,0.32113144 0 0 1 0.32114,-0.321131 0.32113144,0.32113144 0 0 1 0.32113,0.321131 z m -7.85782,-6.077148 a 0.32113144,0.32113144 0 0 1 -0.32113,0.321131 0.32113144,0.32113144 0 0 1 -0.32113,-0.321131 0.32113144,0.32113144 0 0 1 0.32113,-0.321132 0.32113144,0.32113144 0 0 1 0.32113,0.321132 z m 1.93861,6.077148 a 0.32113144,0.32113144 0 0 1 -0.32113,0.321132 0.32113144,0.32113144 0 0 1 -0.32113,-0.321132 0.32113144,0.32113144 0 0 1 0.32113,-0.321131 0.32113144,0.32113144 0 0 1 0.32113,0.321131 z m -19.745366,6.301117 a 0.32113144,0.32113144 0 0 1 -0.32114,0.321132 0.32113144,0.32113144 0 0 1 -0.32113,-0.321132 0.32113144,0.32113144 0 0 1 0.32113,-0.321131 0.32113144,0.32113144 0 0 1 0.32114,0.321131 z m -18.21233,-6.301117 a 0.32113144,0.32113144 0 0 1 -0.32113,0.321132 0.32113144,0.32113144 0 0 1 -0.32113,-0.321132 0.32113144,0.32113144 0 0 1 0.32113,-0.321131 0.32113144,0.32113144 0 0 1 0.32113,0.321131 z m 1.57107,-2.458397 a 0.32113144,0.32113144 0 0 1 -0.32113,0.321132 0.32113144,0.32113144 0 0 1 -0.32114,-0.321132 0.32113144,0.32113144 0 0 1 0.32114,-0.321131 0.32113144,0.32113144 0 0 1 0.32113,0.321131 z m 16.32012,32.770197 1e-5,10.791633 7.408326,-6.362403 V 85.835794 m 0,-4.369964 -7.408336,1.904278 v 6.213678 m 0,-12.026762 7.408336,-1.904275 V 63.508787 h 12.33704 m -37.957696,0 h 18.21232 v 6.301118 m -16.64125,-8.759517 2.39096,-3.618749 h 26.952026 m 12.96285,6.077148 c 3.96203,-6.077148 3.96203,-6.077148 3.96203,-6.077148 h -11.81985" />
    <g
       id="g41863"
       transform="translate(-34.466036,-9.6087131)">
      <path
         style="fill:none;stroke:url(#linearGradient39327);stroke-width:0.765;stroke-linecap:butt;stroke-linejoin:miter;stroke-miterlimit:4;stroke-dasharray:none;stroke-opacity:1"
         d="m 170.38446,79.356002 c -1.3795,-0.572516 -3.70004,-0.681118 -5.5274,-0.254037 l -8.97424,2.346984 c -0.53247,1.436244 0.0432,2.281506 0.78631,3.037422 l 9.19878,-2.330847 c 1.869,-0.652927 3.31784,-1.565799 4.51655,-2.799522 z"
         id="path30811"
         sodipodi:nodetypes="cccccc" />
      <path
         style="fill:#ff0000;stroke:url(#linearGradient39335);stroke-width:0.264583px;stroke-linecap:butt;stroke-linejoin:miter;stroke-opacity:1"
         d="m 152.72179,82.540134 -5.65297,1.432386"
         id="path35200" />
      <path
         style="fill:#ff0000;stroke:url(#linearGradient39339);stroke-width:0.264583px;stroke-linecap:butt;stroke-linejoin:miter;stroke-opacity:1"
         d="m 154.44469,83.32741 -5.65297,1.432386"
         id="path35200-7" />
      <path
         style="fill:#ff0000;stroke:url(#linearGradient39337);stroke-width:0.264583px;stroke-linecap:butt;stroke-linejoin:miter;stroke-opacity:1"
         d="m 153.98514,84.802373 -9.21361,2.336031"
         id="path35202" />
    </g>
  </g>
</svg>
